<mxfile host="app.diagrams.net" agent="Mozilla/5.0 (Windows NT 10.0; Win64; x64) AppleWebKit/537.36 (KHTML, like Gecko) Chrome/130.0.0.0 Safari/537.36" version="24.8.6">
  <diagram id="C5RBs43oDa-KdzZeNtuy" name="Page-1">
    <mxGraphModel grid="0" page="0" gridSize="10" guides="1" tooltips="1" connect="1" arrows="1" fold="1" pageScale="1" pageWidth="827" pageHeight="1169" math="0" shadow="0">
      <root>
        <mxCell id="WIyWlLk6GJQsqaUBKTNV-0" />
        <mxCell id="WIyWlLk6GJQsqaUBKTNV-1" parent="WIyWlLk6GJQsqaUBKTNV-0" />
        <mxCell id="SgWBR7CzT3O53vxkoo0J-32" value="RoadworthinessTest" style="swimlane;fontStyle=0;align=center;verticalAlign=top;childLayout=stackLayout;horizontal=1;startSize=26;horizontalStack=0;resizeParent=1;resizeLast=0;collapsible=1;marginBottom=0;rounded=0;shadow=0;strokeWidth=1;fillColor=#dae8fc;strokeColor=#6c8ebf;" vertex="1" parent="WIyWlLk6GJQsqaUBKTNV-1">
          <mxGeometry x="-563" y="-369" width="200" height="81" as="geometry">
            <mxRectangle x="320" y="-759" width="160" height="26" as="alternateBounds" />
          </mxGeometry>
        </mxCell>
        <mxCell id="SgWBR7CzT3O53vxkoo0J-34" value="motDate: Date" style="text;align=left;verticalAlign=top;spacingLeft=4;spacingRight=4;overflow=hidden;rotatable=0;points=[[0,0.5],[1,0.5]];portConstraint=eastwest;rounded=0;shadow=0;html=0;" vertex="1" parent="SgWBR7CzT3O53vxkoo0J-32">
          <mxGeometry y="26" width="200" height="26" as="geometry" />
        </mxCell>
        <mxCell id="SgWBR7CzT3O53vxkoo0J-33" value="shotcomings: List &lt;String&gt;Â " style="text;align=left;verticalAlign=top;spacingLeft=4;spacingRight=4;overflow=hidden;rotatable=0;points=[[0,0.5],[1,0.5]];portConstraint=eastwest;" vertex="1" parent="SgWBR7CzT3O53vxkoo0J-32">
          <mxGeometry y="52" width="200" height="26" as="geometry" />
        </mxCell>
        <mxCell id="90Dce2XX1cRFiON68zee-2" value="Radar" style="swimlane;fontStyle=0;align=center;verticalAlign=top;childLayout=stackLayout;horizontal=1;startSize=26;horizontalStack=0;resizeParent=1;resizeLast=0;collapsible=1;marginBottom=0;rounded=0;shadow=0;strokeWidth=1;fillColor=#dae8fc;strokeColor=#6c8ebf;" vertex="1" parent="WIyWlLk6GJQsqaUBKTNV-1">
          <mxGeometry x="-1111" y="-795" width="200" height="112" as="geometry">
            <mxRectangle x="320" y="-759" width="160" height="26" as="alternateBounds" />
          </mxGeometry>
        </mxCell>
        <mxCell id="90Dce2XX1cRFiON68zee-3" value="mileage: Int" style="text;align=left;verticalAlign=top;spacingLeft=4;spacingRight=4;overflow=hidden;rotatable=0;points=[[0,0.5],[1,0.5]];portConstraint=eastwest;rounded=0;shadow=0;html=0;" vertex="1" parent="90Dce2XX1cRFiON68zee-2">
          <mxGeometry y="26" width="200" height="26" as="geometry" />
        </mxCell>
        <mxCell id="90Dce2XX1cRFiON68zee-4" value="direction: String&#xa;" style="text;align=left;verticalAlign=top;spacingLeft=4;spacingRight=4;overflow=hidden;rotatable=0;points=[[0,0.5],[1,0.5]];portConstraint=eastwest;" vertex="1" parent="90Dce2XX1cRFiON68zee-2">
          <mxGeometry y="52" width="200" height="25" as="geometry" />
        </mxCell>
        <mxCell id="90Dce2XX1cRFiON68zee-19" value="speedLimit: Int&#xa;" style="text;align=left;verticalAlign=top;spacingLeft=4;spacingRight=4;overflow=hidden;rotatable=0;points=[[0,0.5],[1,0.5]];portConstraint=eastwest;" vertex="1" parent="90Dce2XX1cRFiON68zee-2">
          <mxGeometry y="77" width="200" height="25" as="geometry" />
        </mxCell>
        <mxCell id="90Dce2XX1cRFiON68zee-5" value="Person" style="swimlane;fontStyle=0;align=center;verticalAlign=top;childLayout=stackLayout;horizontal=1;startSize=26;horizontalStack=0;resizeParent=1;resizeLast=0;collapsible=1;marginBottom=0;rounded=0;shadow=0;strokeWidth=1;fillColor=#dae8fc;strokeColor=#6c8ebf;" vertex="1" parent="WIyWlLk6GJQsqaUBKTNV-1">
          <mxGeometry x="-805" y="-51" width="200" height="265" as="geometry">
            <mxRectangle x="320" y="-759" width="160" height="26" as="alternateBounds" />
          </mxGeometry>
        </mxCell>
        <mxCell id="90Dce2XX1cRFiON68zee-6" value="DNI: String" style="text;align=left;verticalAlign=top;spacingLeft=4;spacingRight=4;overflow=hidden;rotatable=0;points=[[0,0.5],[1,0.5]];portConstraint=eastwest;rounded=0;shadow=0;html=0;" vertex="1" parent="90Dce2XX1cRFiON68zee-5">
          <mxGeometry y="26" width="200" height="26" as="geometry" />
        </mxCell>
        <mxCell id="90Dce2XX1cRFiON68zee-7" value="Name: String" style="text;align=left;verticalAlign=top;spacingLeft=4;spacingRight=4;overflow=hidden;rotatable=0;points=[[0,0.5],[1,0.5]];portConstraint=eastwest;" vertex="1" parent="90Dce2XX1cRFiON68zee-5">
          <mxGeometry y="52" width="200" height="26" as="geometry" />
        </mxCell>
        <mxCell id="J62IgyqliJUK6PcRR8d5-4" value="Surname: String" style="text;align=left;verticalAlign=top;spacingLeft=4;spacingRight=4;overflow=hidden;rotatable=0;points=[[0,0.5],[1,0.5]];portConstraint=eastwest;" vertex="1" parent="90Dce2XX1cRFiON68zee-5">
          <mxGeometry y="78" width="200" height="26" as="geometry" />
        </mxCell>
        <mxCell id="J62IgyqliJUK6PcRR8d5-3" value="Sec_Surname: String" style="text;align=left;verticalAlign=top;spacingLeft=4;spacingRight=4;overflow=hidden;rotatable=0;points=[[0,0.5],[1,0.5]];portConstraint=eastwest;" vertex="1" parent="90Dce2XX1cRFiON68zee-5">
          <mxGeometry y="104" width="200" height="26" as="geometry" />
        </mxCell>
        <mxCell id="J62IgyqliJUK6PcRR8d5-2" value="Address: String" style="text;align=left;verticalAlign=top;spacingLeft=4;spacingRight=4;overflow=hidden;rotatable=0;points=[[0,0.5],[1,0.5]];portConstraint=eastwest;" vertex="1" parent="90Dce2XX1cRFiON68zee-5">
          <mxGeometry y="130" width="200" height="26" as="geometry" />
        </mxCell>
        <mxCell id="J62IgyqliJUK6PcRR8d5-7" value="Town: String" style="text;align=left;verticalAlign=top;spacingLeft=4;spacingRight=4;overflow=hidden;rotatable=0;points=[[0,0.5],[1,0.5]];portConstraint=eastwest;" vertex="1" parent="90Dce2XX1cRFiON68zee-5">
          <mxGeometry y="156" width="200" height="26" as="geometry" />
        </mxCell>
        <mxCell id="J62IgyqliJUK6PcRR8d5-6" value="Phone number: String (opcional)" style="text;align=left;verticalAlign=top;spacingLeft=4;spacingRight=4;overflow=hidden;rotatable=0;points=[[0,0.5],[1,0.5]];portConstraint=eastwest;" vertex="1" parent="90Dce2XX1cRFiON68zee-5">
          <mxGeometry y="182" width="200" height="26" as="geometry" />
        </mxCell>
        <mxCell id="J62IgyqliJUK6PcRR8d5-5" value="email: String (opcional)" style="text;align=left;verticalAlign=top;spacingLeft=4;spacingRight=4;overflow=hidden;rotatable=0;points=[[0,0.5],[1,0.5]];portConstraint=eastwest;" vertex="1" parent="90Dce2XX1cRFiON68zee-5">
          <mxGeometry y="208" width="200" height="26" as="geometry" />
        </mxCell>
        <mxCell id="J62IgyqliJUK6PcRR8d5-8" value="Birthdate: Date" style="text;align=left;verticalAlign=top;spacingLeft=4;spacingRight=4;overflow=hidden;rotatable=0;points=[[0,0.5],[1,0.5]];portConstraint=eastwest;" vertex="1" parent="90Dce2XX1cRFiON68zee-5">
          <mxGeometry y="234" width="200" height="26" as="geometry" />
        </mxCell>
        <mxCell id="90Dce2XX1cRFiON68zee-8" value="REPORT" style="swimlane;fontStyle=0;align=center;verticalAlign=top;childLayout=stackLayout;horizontal=1;startSize=26;horizontalStack=0;resizeParent=1;resizeLast=0;collapsible=1;marginBottom=0;rounded=0;shadow=0;strokeWidth=1;fillColor=#dae8fc;strokeColor=#6c8ebf;" vertex="1" parent="WIyWlLk6GJQsqaUBKTNV-1">
          <mxGeometry x="-629" y="-1331" width="216" height="215" as="geometry">
            <mxRectangle x="320" y="-759" width="160" height="26" as="alternateBounds" />
          </mxGeometry>
        </mxCell>
        <mxCell id="90Dce2XX1cRFiON68zee-9" value="id: String" style="text;align=left;verticalAlign=top;spacingLeft=4;spacingRight=4;overflow=hidden;rotatable=0;points=[[0,0.5],[1,0.5]];portConstraint=eastwest;rounded=0;shadow=0;html=0;" vertex="1" parent="90Dce2XX1cRFiON68zee-8">
          <mxGeometry y="26" width="216" height="26" as="geometry" />
        </mxCell>
        <mxCell id="90Dce2XX1cRFiON68zee-10" value="dump date: Date" style="text;align=left;verticalAlign=top;spacingLeft=4;spacingRight=4;overflow=hidden;rotatable=0;points=[[0,0.5],[1,0.5]];portConstraint=eastwest;" vertex="1" parent="90Dce2XX1cRFiON68zee-8">
          <mxGeometry y="52" width="216" height="26" as="geometry" />
        </mxCell>
        <mxCell id="90Dce2XX1cRFiON68zee-28" value="road: Road" style="text;align=left;verticalAlign=top;spacingLeft=4;spacingRight=4;overflow=hidden;rotatable=0;points=[[0,0.5],[1,0.5]];portConstraint=eastwest;" vertex="1" parent="90Dce2XX1cRFiON68zee-8">
          <mxGeometry y="78" width="216" height="26" as="geometry" />
        </mxCell>
        <mxCell id="90Dce2XX1cRFiON68zee-27" value="radar: Radar" style="text;align=left;verticalAlign=top;spacingLeft=4;spacingRight=4;overflow=hidden;rotatable=0;points=[[0,0.5],[1,0.5]];portConstraint=eastwest;" vertex="1" parent="90Dce2XX1cRFiON68zee-8">
          <mxGeometry y="104" width="216" height="26" as="geometry" />
        </mxCell>
        <mxCell id="90Dce2XX1cRFiON68zee-26" value="vehicle: Vehicle" style="text;align=left;verticalAlign=top;spacingLeft=4;spacingRight=4;overflow=hidden;rotatable=0;points=[[0,0.5],[1,0.5]];portConstraint=eastwest;" vertex="1" parent="90Dce2XX1cRFiON68zee-8">
          <mxGeometry y="130" width="216" height="26" as="geometry" />
        </mxCell>
        <mxCell id="90Dce2XX1cRFiON68zee-25" value="Record: Record" style="text;align=left;verticalAlign=top;spacingLeft=4;spacingRight=4;overflow=hidden;rotatable=0;points=[[0,0.5],[1,0.5]];portConstraint=eastwest;" vertex="1" parent="90Dce2XX1cRFiON68zee-8">
          <mxGeometry y="156" width="216" height="26" as="geometry" />
        </mxCell>
        <mxCell id="90Dce2XX1cRFiON68zee-29" value="Speed ticket: Speed ticket (Opcional)" style="text;align=left;verticalAlign=top;spacingLeft=4;spacingRight=4;overflow=hidden;rotatable=0;points=[[0,0.5],[1,0.5]];portConstraint=eastwest;" vertex="1" parent="90Dce2XX1cRFiON68zee-8">
          <mxGeometry y="182" width="216" height="26" as="geometry" />
        </mxCell>
        <mxCell id="90Dce2XX1cRFiON68zee-11" value="Road" style="swimlane;fontStyle=0;align=center;verticalAlign=top;childLayout=stackLayout;horizontal=1;startSize=26;horizontalStack=0;resizeParent=1;resizeLast=0;collapsible=1;marginBottom=0;rounded=0;shadow=0;strokeWidth=1;fillColor=#dae8fc;strokeColor=#6c8ebf;" vertex="1" parent="WIyWlLk6GJQsqaUBKTNV-1">
          <mxGeometry x="-1426" y="-779.5" width="200" height="81" as="geometry">
            <mxRectangle x="320" y="-759" width="160" height="26" as="alternateBounds" />
          </mxGeometry>
        </mxCell>
        <mxCell id="90Dce2XX1cRFiON68zee-12" value="name: String" style="text;align=left;verticalAlign=top;spacingLeft=4;spacingRight=4;overflow=hidden;rotatable=0;points=[[0,0.5],[1,0.5]];portConstraint=eastwest;rounded=0;shadow=0;html=0;" vertex="1" parent="90Dce2XX1cRFiON68zee-11">
          <mxGeometry y="26" width="200" height="26" as="geometry" />
        </mxCell>
        <mxCell id="90Dce2XX1cRFiON68zee-13" value="speedLimit: IntÂ " style="text;align=left;verticalAlign=top;spacingLeft=4;spacingRight=4;overflow=hidden;rotatable=0;points=[[0,0.5],[1,0.5]];portConstraint=eastwest;" vertex="1" parent="90Dce2XX1cRFiON68zee-11">
          <mxGeometry y="52" width="200" height="26" as="geometry" />
        </mxCell>
        <mxCell id="90Dce2XX1cRFiON68zee-14" value="Vehicle" style="swimlane;fontStyle=0;align=center;verticalAlign=top;childLayout=stackLayout;horizontal=1;startSize=26;horizontalStack=0;resizeParent=1;resizeLast=0;collapsible=1;marginBottom=0;rounded=0;shadow=0;strokeWidth=1;fillColor=#dae8fc;strokeColor=#6c8ebf;" vertex="1" parent="WIyWlLk6GJQsqaUBKTNV-1">
          <mxGeometry x="-800" y="-802" width="200" height="213" as="geometry">
            <mxRectangle x="320" y="-759" width="160" height="26" as="alternateBounds" />
          </mxGeometry>
        </mxCell>
        <mxCell id="90Dce2XX1cRFiON68zee-15" value="numberPlate: String" style="text;align=left;verticalAlign=top;spacingLeft=4;spacingRight=4;overflow=hidden;rotatable=0;points=[[0,0.5],[1,0.5]];portConstraint=eastwest;rounded=0;shadow=0;html=0;" vertex="1" parent="90Dce2XX1cRFiON68zee-14">
          <mxGeometry y="26" width="200" height="26" as="geometry" />
        </mxCell>
        <mxCell id="90Dce2XX1cRFiON68zee-16" value="make: StringÂ " style="text;align=left;verticalAlign=top;spacingLeft=4;spacingRight=4;overflow=hidden;rotatable=0;points=[[0,0.5],[1,0.5]];portConstraint=eastwest;" vertex="1" parent="90Dce2XX1cRFiON68zee-14">
          <mxGeometry y="52" width="200" height="26" as="geometry" />
        </mxCell>
        <mxCell id="90Dce2XX1cRFiON68zee-23" value="model: String" style="text;align=left;verticalAlign=top;spacingLeft=4;spacingRight=4;overflow=hidden;rotatable=0;points=[[0,0.5],[1,0.5]];portConstraint=eastwest;" vertex="1" parent="90Dce2XX1cRFiON68zee-14">
          <mxGeometry y="78" width="200" height="26" as="geometry" />
        </mxCell>
        <mxCell id="90Dce2XX1cRFiON68zee-24" value="power: Int" style="text;align=left;verticalAlign=top;spacingLeft=4;spacingRight=4;overflow=hidden;rotatable=0;points=[[0,0.5],[1,0.5]];portConstraint=eastwest;" vertex="1" parent="90Dce2XX1cRFiON68zee-14">
          <mxGeometry y="104" width="200" height="26" as="geometry" />
        </mxCell>
        <mxCell id="90Dce2XX1cRFiON68zee-21" value="color: StringÂ " style="text;align=left;verticalAlign=top;spacingLeft=4;spacingRight=4;overflow=hidden;rotatable=0;points=[[0,0.5],[1,0.5]];portConstraint=eastwest;" vertex="1" parent="90Dce2XX1cRFiON68zee-14">
          <mxGeometry y="130" width="200" height="26" as="geometry" />
        </mxCell>
        <mxCell id="90Dce2XX1cRFiON68zee-22" value="chassisNumber: StringÂ " style="text;align=left;verticalAlign=top;spacingLeft=4;spacingRight=4;overflow=hidden;rotatable=0;points=[[0,0.5],[1,0.5]];portConstraint=eastwest;" vertex="1" parent="90Dce2XX1cRFiON68zee-14">
          <mxGeometry y="156" width="200" height="26" as="geometry" />
        </mxCell>
        <mxCell id="90Dce2XX1cRFiON68zee-20" value="registryDate: Date" style="text;align=left;verticalAlign=top;spacingLeft=4;spacingRight=4;overflow=hidden;rotatable=0;points=[[0,0.5],[1,0.5]];portConstraint=eastwest;" vertex="1" parent="90Dce2XX1cRFiON68zee-14">
          <mxGeometry y="182" width="200" height="26" as="geometry" />
        </mxCell>
        <mxCell id="J62IgyqliJUK6PcRR8d5-9" value="Driver" style="swimlane;fontStyle=0;align=center;verticalAlign=top;childLayout=stackLayout;horizontal=1;startSize=26;horizontalStack=0;resizeParent=1;resizeLast=0;collapsible=1;marginBottom=0;rounded=0;shadow=0;strokeWidth=1;fillColor=#dae8fc;strokeColor=#6c8ebf;" vertex="1" parent="WIyWlLk6GJQsqaUBKTNV-1">
          <mxGeometry x="-1065" y="-369" width="200" height="53" as="geometry">
            <mxRectangle x="320" y="-759" width="160" height="26" as="alternateBounds" />
          </mxGeometry>
        </mxCell>
        <mxCell id="J62IgyqliJUK6PcRR8d5-11" value="driving license: Driving license" style="text;align=left;verticalAlign=top;spacingLeft=4;spacingRight=4;overflow=hidden;rotatable=0;points=[[0,0.5],[1,0.5]];portConstraint=eastwest;" vertex="1" parent="J62IgyqliJUK6PcRR8d5-9">
          <mxGeometry y="26" width="200" height="26" as="geometry" />
        </mxCell>
        <mxCell id="J62IgyqliJUK6PcRR8d5-12" value="Driving License" style="swimlane;fontStyle=0;align=center;verticalAlign=top;childLayout=stackLayout;horizontal=1;startSize=26;horizontalStack=0;resizeParent=1;resizeLast=0;collapsible=1;marginBottom=0;rounded=0;shadow=0;strokeWidth=1;fillColor=#dae8fc;strokeColor=#6c8ebf;" vertex="1" parent="WIyWlLk6GJQsqaUBKTNV-1">
          <mxGeometry x="-1256" y="-144" width="200" height="81" as="geometry">
            <mxRectangle x="320" y="-759" width="160" height="26" as="alternateBounds" />
          </mxGeometry>
        </mxCell>
        <mxCell id="J62IgyqliJUK6PcRR8d5-13" value="type. String" style="text;align=left;verticalAlign=top;spacingLeft=4;spacingRight=4;overflow=hidden;rotatable=0;points=[[0,0.5],[1,0.5]];portConstraint=eastwest;rounded=0;shadow=0;html=0;" vertex="1" parent="J62IgyqliJUK6PcRR8d5-12">
          <mxGeometry y="26" width="200" height="26" as="geometry" />
        </mxCell>
        <mxCell id="J62IgyqliJUK6PcRR8d5-14" value="date. Date" style="text;align=left;verticalAlign=top;spacingLeft=4;spacingRight=4;overflow=hidden;rotatable=0;points=[[0,0.5],[1,0.5]];portConstraint=eastwest;" vertex="1" parent="J62IgyqliJUK6PcRR8d5-12">
          <mxGeometry y="52" width="200" height="26" as="geometry" />
        </mxCell>
        <mxCell id="J62IgyqliJUK6PcRR8d5-15" value="Owner" style="swimlane;fontStyle=0;align=center;verticalAlign=top;childLayout=stackLayout;horizontal=1;startSize=26;horizontalStack=0;resizeParent=1;resizeLast=0;collapsible=1;marginBottom=0;rounded=0;shadow=0;strokeWidth=1;fillColor=#dae8fc;strokeColor=#6c8ebf;" vertex="1" parent="WIyWlLk6GJQsqaUBKTNV-1">
          <mxGeometry x="-805" y="-369" width="200" height="28" as="geometry">
            <mxRectangle x="320" y="-759" width="160" height="26" as="alternateBounds" />
          </mxGeometry>
        </mxCell>
        <mxCell id="J62IgyqliJUK6PcRR8d5-18" value="Record" style="swimlane;fontStyle=0;align=center;verticalAlign=top;childLayout=stackLayout;horizontal=1;startSize=26;horizontalStack=0;resizeParent=1;resizeLast=0;collapsible=1;marginBottom=0;rounded=0;shadow=0;strokeWidth=1;fillColor=#dae8fc;strokeColor=#6c8ebf;" vertex="1" parent="WIyWlLk6GJQsqaUBKTNV-1">
          <mxGeometry x="54" y="-817" width="200" height="157" as="geometry">
            <mxRectangle x="320" y="-759" width="160" height="26" as="alternateBounds" />
          </mxGeometry>
        </mxCell>
        <mxCell id="J62IgyqliJUK6PcRR8d5-19" value="rec_ID: Int" style="text;align=left;verticalAlign=top;spacingLeft=4;spacingRight=4;overflow=hidden;rotatable=0;points=[[0,0.5],[1,0.5]];portConstraint=eastwest;rounded=0;shadow=0;html=0;" vertex="1" parent="J62IgyqliJUK6PcRR8d5-18">
          <mxGeometry y="26" width="200" height="26" as="geometry" />
        </mxCell>
        <mxCell id="J62IgyqliJUK6PcRR8d5-20" value="file: String" style="text;align=left;verticalAlign=top;spacingLeft=4;spacingRight=4;overflow=hidden;rotatable=0;points=[[0,0.5],[1,0.5]];portConstraint=eastwest;" vertex="1" parent="J62IgyqliJUK6PcRR8d5-18">
          <mxGeometry y="52" width="200" height="26" as="geometry" />
        </mxCell>
        <mxCell id="J62IgyqliJUK6PcRR8d5-21" value="date: Date" style="text;align=left;verticalAlign=top;spacingLeft=4;spacingRight=4;overflow=hidden;rotatable=0;points=[[0,0.5],[1,0.5]];portConstraint=eastwest;" vertex="1" parent="J62IgyqliJUK6PcRR8d5-18">
          <mxGeometry y="78" width="200" height="26" as="geometry" />
        </mxCell>
        <mxCell id="J62IgyqliJUK6PcRR8d5-22" value="time: String" style="text;align=left;verticalAlign=top;spacingLeft=4;spacingRight=4;overflow=hidden;rotatable=0;points=[[0,0.5],[1,0.5]];portConstraint=eastwest;" vertex="1" parent="J62IgyqliJUK6PcRR8d5-18">
          <mxGeometry y="104" width="200" height="26" as="geometry" />
        </mxCell>
        <mxCell id="J62IgyqliJUK6PcRR8d5-23" value="speed: Int" style="text;align=left;verticalAlign=top;spacingLeft=4;spacingRight=4;overflow=hidden;rotatable=0;points=[[0,0.5],[1,0.5]];portConstraint=eastwest;" vertex="1" parent="J62IgyqliJUK6PcRR8d5-18">
          <mxGeometry y="130" width="200" height="26" as="geometry" />
        </mxCell>
        <mxCell id="J62IgyqliJUK6PcRR8d5-24" value="Speed ticket" style="swimlane;fontStyle=0;align=center;verticalAlign=top;childLayout=stackLayout;horizontal=1;startSize=26;horizontalStack=0;resizeParent=1;resizeLast=0;collapsible=1;marginBottom=0;rounded=0;shadow=0;strokeWidth=1;fillColor=#dae8fc;strokeColor=#6c8ebf;" vertex="1" parent="WIyWlLk6GJQsqaUBKTNV-1">
          <mxGeometry x="-301" y="-817" width="200" height="217" as="geometry">
            <mxRectangle x="320" y="-759" width="160" height="26" as="alternateBounds" />
          </mxGeometry>
        </mxCell>
        <mxCell id="J62IgyqliJUK6PcRR8d5-25" value="Issue date: Date" style="text;align=left;verticalAlign=top;spacingLeft=4;spacingRight=4;overflow=hidden;rotatable=0;points=[[0,0.5],[1,0.5]];portConstraint=eastwest;rounded=0;shadow=0;html=0;" vertex="1" parent="J62IgyqliJUK6PcRR8d5-24">
          <mxGeometry y="26" width="200" height="26" as="geometry" />
        </mxCell>
        <mxCell id="J62IgyqliJUK6PcRR8d5-26" value="Amount: float" style="text;align=left;verticalAlign=top;spacingLeft=4;spacingRight=4;overflow=hidden;rotatable=0;points=[[0,0.5],[1,0.5]];portConstraint=eastwest;" vertex="1" parent="J62IgyqliJUK6PcRR8d5-24">
          <mxGeometry y="52" width="200" height="26" as="geometry" />
        </mxCell>
        <mxCell id="J62IgyqliJUK6PcRR8d5-27" value="Currency: String" style="text;align=left;verticalAlign=top;spacingLeft=4;spacingRight=4;overflow=hidden;rotatable=0;points=[[0,0.5],[1,0.5]];portConstraint=eastwest;" vertex="1" parent="J62IgyqliJUK6PcRR8d5-24">
          <mxGeometry y="78" width="200" height="26" as="geometry" />
        </mxCell>
        <mxCell id="J62IgyqliJUK6PcRR8d5-28" value="Debtor: Debtor" style="text;align=left;verticalAlign=top;spacingLeft=4;spacingRight=4;overflow=hidden;rotatable=0;points=[[0,0.5],[1,0.5]];portConstraint=eastwest;" vertex="1" parent="J62IgyqliJUK6PcRR8d5-24">
          <mxGeometry y="104" width="200" height="26" as="geometry" />
        </mxCell>
        <mxCell id="J62IgyqliJUK6PcRR8d5-29" value="Pay date: String (opcional)" style="text;align=left;verticalAlign=top;spacingLeft=4;spacingRight=4;overflow=hidden;rotatable=0;points=[[0,0.5],[1,0.5]];portConstraint=eastwest;" vertex="1" parent="J62IgyqliJUK6PcRR8d5-24">
          <mxGeometry y="130" width="200" height="26" as="geometry" />
        </mxCell>
        <mxCell id="J62IgyqliJUK6PcRR8d5-30" value="Pay type: String (opcional)" style="text;align=left;verticalAlign=top;spacingLeft=4;spacingRight=4;overflow=hidden;rotatable=0;points=[[0,0.5],[1,0.5]];portConstraint=eastwest;" vertex="1" parent="J62IgyqliJUK6PcRR8d5-24">
          <mxGeometry y="156" width="200" height="26" as="geometry" />
        </mxCell>
        <mxCell id="J62IgyqliJUK6PcRR8d5-31" value="State: String" style="text;align=left;verticalAlign=top;spacingLeft=4;spacingRight=4;overflow=hidden;rotatable=0;points=[[0,0.5],[1,0.5]];portConstraint=eastwest;" vertex="1" parent="J62IgyqliJUK6PcRR8d5-24">
          <mxGeometry y="182" width="200" height="26" as="geometry" />
        </mxCell>
        <mxCell id="J62IgyqliJUK6PcRR8d5-32" value="Debtor" style="swimlane;fontStyle=0;align=center;verticalAlign=top;childLayout=stackLayout;horizontal=1;startSize=26;horizontalStack=0;resizeParent=1;resizeLast=0;collapsible=1;marginBottom=0;rounded=0;shadow=0;strokeWidth=1;fillColor=#dae8fc;strokeColor=#6c8ebf;" vertex="1" parent="WIyWlLk6GJQsqaUBKTNV-1">
          <mxGeometry x="-210" y="-144" width="200" height="56" as="geometry">
            <mxRectangle x="320" y="-759" width="160" height="26" as="alternateBounds" />
          </mxGeometry>
        </mxCell>
        <mxCell id="J62IgyqliJUK6PcRR8d5-34" value="Insolvency: String" style="text;align=left;verticalAlign=top;spacingLeft=4;spacingRight=4;overflow=hidden;rotatable=0;points=[[0,0.5],[1,0.5]];portConstraint=eastwest;" vertex="1" parent="J62IgyqliJUK6PcRR8d5-32">
          <mxGeometry y="26" width="200" height="26" as="geometry" />
        </mxCell>
        <mxCell id="J62IgyqliJUK6PcRR8d5-60" value="" style="shape=flexArrow;endArrow=classic;html=1;rounded=0;fontSize=12;startSize=8;endSize=8;curved=1;entryX=0;entryY=0;entryDx=0;entryDy=0;exitX=0.567;exitY=0.962;exitDx=0;exitDy=0;exitPerimeter=0;" edge="1" parent="WIyWlLk6GJQsqaUBKTNV-1" source="J62IgyqliJUK6PcRR8d5-11" target="90Dce2XX1cRFiON68zee-5">
          <mxGeometry width="50" height="50" relative="1" as="geometry">
            <mxPoint x="-344" y="-214" as="sourcePoint" />
            <mxPoint x="1452" y="-640" as="targetPoint" />
          </mxGeometry>
        </mxCell>
        <mxCell id="J62IgyqliJUK6PcRR8d5-62" value="" style="endArrow=none;html=1;rounded=0;fontSize=12;startSize=8;endSize=8;edgeStyle=elbowEdgeStyle;entryX=0.5;entryY=0;entryDx=0;entryDy=0;exitX=0;exitY=0.25;exitDx=0;exitDy=0;" edge="1" parent="WIyWlLk6GJQsqaUBKTNV-1" source="J62IgyqliJUK6PcRR8d5-9" target="J62IgyqliJUK6PcRR8d5-12">
          <mxGeometry width="50" height="50" relative="1" as="geometry">
            <mxPoint x="1133" y="-637" as="sourcePoint" />
            <mxPoint x="1183" y="-687" as="targetPoint" />
            <Array as="points">
              <mxPoint x="-1156" y="-247" />
            </Array>
          </mxGeometry>
        </mxCell>
        <mxCell id="J62IgyqliJUK6PcRR8d5-63" value="" style="endArrow=none;html=1;rounded=0;fontSize=12;startSize=8;endSize=8;edgeStyle=orthogonalEdgeStyle;exitX=0.5;exitY=0;exitDx=0;exitDy=0;entryX=1;entryY=0.148;entryDx=0;entryDy=0;entryPerimeter=0;" edge="1" parent="WIyWlLk6GJQsqaUBKTNV-1" source="J62IgyqliJUK6PcRR8d5-32" target="SgWBR7CzT3O53vxkoo0J-32">
          <mxGeometry width="50" height="50" relative="1" as="geometry">
            <mxPoint x="-120" y="-282" as="sourcePoint" />
            <mxPoint x="-292" y="-350" as="targetPoint" />
            <Array as="points">
              <mxPoint x="-110" y="-357" />
            </Array>
          </mxGeometry>
        </mxCell>
        <mxCell id="J62IgyqliJUK6PcRR8d5-71" value="" style="endArrow=none;html=1;rounded=0;fontSize=12;startSize=8;endSize=8;edgeStyle=orthogonalEdgeStyle;entryX=0.5;entryY=0;entryDx=0;entryDy=0;" edge="1" parent="WIyWlLk6GJQsqaUBKTNV-1" source="90Dce2XX1cRFiON68zee-25" target="J62IgyqliJUK6PcRR8d5-18">
          <mxGeometry width="50" height="50" relative="1" as="geometry">
            <mxPoint x="-417" y="-1157" as="sourcePoint" />
            <mxPoint x="-66" y="-792" as="targetPoint" />
            <Array as="points">
              <mxPoint x="154" y="-1159" />
            </Array>
          </mxGeometry>
        </mxCell>
        <mxCell id="J62IgyqliJUK6PcRR8d5-74" value="" style="endArrow=none;html=1;rounded=0;fontSize=12;startSize=8;endSize=8;edgeStyle=orthogonalEdgeStyle;entryX=0.561;entryY=0.024;entryDx=0;entryDy=0;entryPerimeter=0;exitX=0.99;exitY=0.731;exitDx=0;exitDy=0;exitPerimeter=0;" edge="1" parent="WIyWlLk6GJQsqaUBKTNV-1" source="90Dce2XX1cRFiON68zee-29" target="J62IgyqliJUK6PcRR8d5-24">
          <mxGeometry width="50" height="50" relative="1" as="geometry">
            <mxPoint x="-413" y="-1138" as="sourcePoint" />
            <mxPoint x="20" y="-902" as="targetPoint" />
            <Array as="points">
              <mxPoint x="-189" y="-1130" />
            </Array>
          </mxGeometry>
        </mxCell>
        <mxCell id="J62IgyqliJUK6PcRR8d5-77" value="" style="endArrow=none;html=1;rounded=0;fontSize=12;startSize=8;endSize=8;edgeStyle=orthogonalEdgeStyle;entryX=0.544;entryY=0;entryDx=0;entryDy=0;exitX=0;exitY=0.5;exitDx=0;exitDy=0;entryPerimeter=0;" edge="1" parent="WIyWlLk6GJQsqaUBKTNV-1" source="90Dce2XX1cRFiON68zee-26" target="90Dce2XX1cRFiON68zee-14">
          <mxGeometry width="50" height="50" relative="1" as="geometry">
            <mxPoint x="-655" y="-1193" as="sourcePoint" />
            <mxPoint x="-753.5" y="-795" as="targetPoint" />
            <Array as="points">
              <mxPoint x="-691" y="-1188" />
            </Array>
          </mxGeometry>
        </mxCell>
        <mxCell id="J62IgyqliJUK6PcRR8d5-78" value="" style="endArrow=none;html=1;rounded=0;fontSize=12;startSize=8;endSize=8;edgeStyle=orthogonalEdgeStyle;entryX=0.53;entryY=0.009;entryDx=0;entryDy=0;exitX=0.003;exitY=0.667;exitDx=0;exitDy=0;entryPerimeter=0;exitPerimeter=0;" edge="1" parent="WIyWlLk6GJQsqaUBKTNV-1" source="90Dce2XX1cRFiON68zee-27" target="90Dce2XX1cRFiON68zee-2">
          <mxGeometry width="50" height="50" relative="1" as="geometry">
            <mxPoint x="-629" y="-1213" as="sourcePoint" />
            <mxPoint x="-1058" y="-794" as="targetPoint" />
            <Array as="points">
              <mxPoint x="-628" y="-1212" />
              <mxPoint x="-1006" y="-1212" />
              <mxPoint x="-1006" y="-794" />
            </Array>
          </mxGeometry>
        </mxCell>
        <mxCell id="J62IgyqliJUK6PcRR8d5-79" value="" style="endArrow=none;html=1;rounded=0;fontSize=12;startSize=8;endSize=8;edgeStyle=orthogonalEdgeStyle;entryX=0.53;entryY=0.009;entryDx=0;entryDy=0;entryPerimeter=0;" edge="1" parent="WIyWlLk6GJQsqaUBKTNV-1" source="90Dce2XX1cRFiON68zee-28">
          <mxGeometry width="50" height="50" relative="1" as="geometry">
            <mxPoint x="-646" y="-1284" as="sourcePoint" />
            <mxPoint x="-1319" y="-779.5" as="targetPoint" />
            <Array as="points">
              <mxPoint x="-1320" y="-1240" />
              <mxPoint x="-1320" y="-779" />
            </Array>
          </mxGeometry>
        </mxCell>
        <mxCell id="J62IgyqliJUK6PcRR8d5-80" value="" style="endArrow=none;html=1;rounded=0;fontSize=12;startSize=8;endSize=8;edgeStyle=orthogonalEdgeStyle;exitX=0.5;exitY=0;exitDx=0;exitDy=0;" edge="1" parent="WIyWlLk6GJQsqaUBKTNV-1" source="J62IgyqliJUK6PcRR8d5-9">
          <mxGeometry width="50" height="50" relative="1" as="geometry">
            <mxPoint x="-966" y="-387" as="sourcePoint" />
            <mxPoint x="-760" y="-589" as="targetPoint" />
            <Array as="points">
              <mxPoint x="-965" y="-517" />
              <mxPoint x="-759" y="-517" />
              <mxPoint x="-759" y="-589" />
            </Array>
          </mxGeometry>
        </mxCell>
        <mxCell id="J62IgyqliJUK6PcRR8d5-81" value="" style="endArrow=none;html=1;rounded=0;fontSize=12;startSize=8;endSize=8;curved=1;exitX=0.484;exitY=0.102;exitDx=0;exitDy=0;exitPerimeter=0;" edge="1" parent="WIyWlLk6GJQsqaUBKTNV-1" source="J62IgyqliJUK6PcRR8d5-15">
          <mxGeometry width="50" height="50" relative="1" as="geometry">
            <mxPoint x="-761" y="-539" as="sourcePoint" />
            <mxPoint x="-711" y="-589" as="targetPoint" />
          </mxGeometry>
        </mxCell>
        <mxCell id="J62IgyqliJUK6PcRR8d5-82" value="" style="endArrow=none;html=1;rounded=0;fontSize=12;startSize=8;endSize=8;edgeStyle=orthogonalEdgeStyle;exitX=0.548;exitY=0.024;exitDx=0;exitDy=0;exitPerimeter=0;" edge="1" parent="WIyWlLk6GJQsqaUBKTNV-1" source="SgWBR7CzT3O53vxkoo0J-32">
          <mxGeometry width="50" height="50" relative="1" as="geometry">
            <mxPoint x="-854" y="-369" as="sourcePoint" />
            <mxPoint x="-649" y="-589" as="targetPoint" />
            <Array as="points">
              <mxPoint x="-453" y="-369" />
              <mxPoint x="-454" y="-369" />
              <mxPoint x="-454" y="-517" />
              <mxPoint x="-648" y="-517" />
              <mxPoint x="-648" y="-589" />
            </Array>
          </mxGeometry>
        </mxCell>
        <mxCell id="J62IgyqliJUK6PcRR8d5-83" value="" style="shape=flexArrow;endArrow=classic;html=1;rounded=0;fontSize=12;startSize=8;endSize=8;curved=1;entryX=0.96;entryY=0;entryDx=0;entryDy=0;entryPerimeter=0;exitX=0;exitY=0.5;exitDx=0;exitDy=0;" edge="1" parent="WIyWlLk6GJQsqaUBKTNV-1" source="J62IgyqliJUK6PcRR8d5-34" target="90Dce2XX1cRFiON68zee-5">
          <mxGeometry width="50" height="50" relative="1" as="geometry">
            <mxPoint x="-516" y="-132" as="sourcePoint" />
            <mxPoint x="9" y="-272" as="targetPoint" />
          </mxGeometry>
        </mxCell>
        <mxCell id="J62IgyqliJUK6PcRR8d5-84" value="" style="shape=flexArrow;endArrow=classic;html=1;rounded=0;fontSize=12;startSize=8;endSize=8;curved=1;entryX=0.462;entryY=0.008;entryDx=0;entryDy=0;entryPerimeter=0;" edge="1" parent="WIyWlLk6GJQsqaUBKTNV-1" target="90Dce2XX1cRFiON68zee-5">
          <mxGeometry width="50" height="50" relative="1" as="geometry">
            <mxPoint x="-709" y="-341" as="sourcePoint" />
            <mxPoint x="-184" y="-481" as="targetPoint" />
          </mxGeometry>
        </mxCell>
        <mxCell id="J62IgyqliJUK6PcRR8d5-85" value="1" style="text;html=1;align=center;verticalAlign=middle;resizable=0;points=[];autosize=1;strokeColor=none;fillColor=none;fontSize=16;" vertex="1" parent="WIyWlLk6GJQsqaUBKTNV-1">
          <mxGeometry x="-662.5" y="-1270.5" width="27" height="31" as="geometry" />
        </mxCell>
        <mxCell id="J62IgyqliJUK6PcRR8d5-86" value="1" style="text;html=1;align=center;verticalAlign=middle;resizable=0;points=[];autosize=1;strokeColor=none;fillColor=none;fontSize=16;" vertex="1" parent="WIyWlLk6GJQsqaUBKTNV-1">
          <mxGeometry x="-1314.5" y="-822.5" width="27" height="31" as="geometry" />
        </mxCell>
        <mxCell id="J62IgyqliJUK6PcRR8d5-87" value="1" style="text;html=1;align=center;verticalAlign=middle;resizable=0;points=[];autosize=1;strokeColor=none;fillColor=none;fontSize=16;" vertex="1" parent="WIyWlLk6GJQsqaUBKTNV-1">
          <mxGeometry x="-1004.5" y="-827.5" width="27" height="31" as="geometry" />
        </mxCell>
        <mxCell id="J62IgyqliJUK6PcRR8d5-88" value="1" style="text;html=1;align=center;verticalAlign=middle;resizable=0;points=[];autosize=1;strokeColor=none;fillColor=none;fontSize=16;" vertex="1" parent="WIyWlLk6GJQsqaUBKTNV-1">
          <mxGeometry x="-662.5" y="-1239.5" width="27" height="31" as="geometry" />
        </mxCell>
        <mxCell id="J62IgyqliJUK6PcRR8d5-89" value="1" style="text;html=1;align=center;verticalAlign=middle;resizable=0;points=[];autosize=1;strokeColor=none;fillColor=none;fontSize=16;" vertex="1" parent="WIyWlLk6GJQsqaUBKTNV-1">
          <mxGeometry x="155.5" y="-845.5" width="27" height="31" as="geometry" />
        </mxCell>
        <mxCell id="J62IgyqliJUK6PcRR8d5-90" value="1" style="text;html=1;align=center;verticalAlign=middle;resizable=0;points=[];autosize=1;strokeColor=none;fillColor=none;fontSize=16;" vertex="1" parent="WIyWlLk6GJQsqaUBKTNV-1">
          <mxGeometry x="-411.5" y="-1192.5" width="27" height="31" as="geometry" />
        </mxCell>
        <mxCell id="J62IgyqliJUK6PcRR8d5-91" value="1" style="text;html=1;align=center;verticalAlign=middle;resizable=0;points=[];autosize=1;strokeColor=none;fillColor=none;fontSize=16;" vertex="1" parent="WIyWlLk6GJQsqaUBKTNV-1">
          <mxGeometry x="-662.5" y="-1215" width="27" height="31" as="geometry" />
        </mxCell>
        <mxCell id="J62IgyqliJUK6PcRR8d5-92" value="1" style="text;html=1;align=center;verticalAlign=middle;resizable=0;points=[];autosize=1;strokeColor=none;fillColor=none;fontSize=16;" vertex="1" parent="WIyWlLk6GJQsqaUBKTNV-1">
          <mxGeometry x="-691.5" y="-834.5" width="27" height="31" as="geometry" />
        </mxCell>
        <mxCell id="J62IgyqliJUK6PcRR8d5-93" value="0..1" style="text;html=1;align=center;verticalAlign=middle;resizable=0;points=[];autosize=1;strokeColor=none;fillColor=none;fontSize=16;rotation=0;" vertex="1" parent="WIyWlLk6GJQsqaUBKTNV-1">
          <mxGeometry x="-187" y="-845.5" width="45" height="31" as="geometry" />
        </mxCell>
        <mxCell id="J62IgyqliJUK6PcRR8d5-94" value="1" style="text;html=1;align=center;verticalAlign=middle;resizable=0;points=[];autosize=1;strokeColor=none;fillColor=none;fontSize=16;" vertex="1" parent="WIyWlLk6GJQsqaUBKTNV-1">
          <mxGeometry x="-411.5" y="-1156" width="27" height="31" as="geometry" />
        </mxCell>
        <mxCell id="J62IgyqliJUK6PcRR8d5-95" value="1" style="text;html=1;align=center;verticalAlign=middle;resizable=0;points=[];autosize=1;strokeColor=none;fillColor=none;fontSize=16;" vertex="1" parent="WIyWlLk6GJQsqaUBKTNV-1">
          <mxGeometry x="-789.5" y="-595.5" width="27" height="31" as="geometry" />
        </mxCell>
        <mxCell id="J62IgyqliJUK6PcRR8d5-96" value="1" style="text;html=1;align=center;verticalAlign=middle;resizable=0;points=[];autosize=1;strokeColor=none;fillColor=none;fontSize=16;" vertex="1" parent="WIyWlLk6GJQsqaUBKTNV-1">
          <mxGeometry x="-962.5" y="-401.5" width="27" height="31" as="geometry" />
        </mxCell>
        <mxCell id="J62IgyqliJUK6PcRR8d5-97" value="1" style="text;html=1;align=center;verticalAlign=middle;resizable=0;points=[];autosize=1;strokeColor=none;fillColor=none;fontSize=16;" vertex="1" parent="WIyWlLk6GJQsqaUBKTNV-1">
          <mxGeometry x="-703.5" y="-591.5" width="27" height="31" as="geometry" />
        </mxCell>
        <mxCell id="J62IgyqliJUK6PcRR8d5-98" value="1" style="text;html=1;align=center;verticalAlign=middle;resizable=0;points=[];autosize=1;strokeColor=none;fillColor=none;fontSize=16;" vertex="1" parent="WIyWlLk6GJQsqaUBKTNV-1">
          <mxGeometry x="-703.5" y="-395.5" width="27" height="31" as="geometry" />
        </mxCell>
        <mxCell id="J62IgyqliJUK6PcRR8d5-99" value="1" style="text;html=1;align=center;verticalAlign=middle;resizable=0;points=[];autosize=1;strokeColor=none;fillColor=none;fontSize=16;" vertex="1" parent="WIyWlLk6GJQsqaUBKTNV-1">
          <mxGeometry x="-647.5" y="-589.5" width="27" height="31" as="geometry" />
        </mxCell>
        <mxCell id="J62IgyqliJUK6PcRR8d5-100" value="1..*" style="text;html=1;align=center;verticalAlign=middle;resizable=0;points=[];autosize=1;strokeColor=none;fillColor=none;fontSize=16;" vertex="1" parent="WIyWlLk6GJQsqaUBKTNV-1">
          <mxGeometry x="-457.5" y="-400.5" width="42" height="31" as="geometry" />
        </mxCell>
        <mxCell id="J62IgyqliJUK6PcRR8d5-101" value="1" style="text;html=1;align=center;verticalAlign=middle;resizable=0;points=[];autosize=1;strokeColor=none;fillColor=none;fontSize=16;" vertex="1" parent="WIyWlLk6GJQsqaUBKTNV-1">
          <mxGeometry x="-1096.5" y="-363.5" width="27" height="31" as="geometry" />
        </mxCell>
        <mxCell id="J62IgyqliJUK6PcRR8d5-102" value="1" style="text;html=1;align=center;verticalAlign=middle;resizable=0;points=[];autosize=1;strokeColor=none;fillColor=none;fontSize=16;" vertex="1" parent="WIyWlLk6GJQsqaUBKTNV-1">
          <mxGeometry x="-1159.5" y="-176.5" width="27" height="31" as="geometry" />
        </mxCell>
        <mxCell id="J62IgyqliJUK6PcRR8d5-106" value="1" style="text;html=1;align=center;verticalAlign=middle;resizable=0;points=[];autosize=1;strokeColor=none;fillColor=none;fontSize=16;" vertex="1" parent="WIyWlLk6GJQsqaUBKTNV-1">
          <mxGeometry x="-353.5" y="-393.5" width="27" height="31" as="geometry" />
        </mxCell>
        <mxCell id="J62IgyqliJUK6PcRR8d5-107" value="1" style="text;html=1;align=center;verticalAlign=middle;resizable=0;points=[];autosize=1;strokeColor=none;fillColor=none;fontSize=16;" vertex="1" parent="WIyWlLk6GJQsqaUBKTNV-1">
          <mxGeometry x="-97.5" y="-174.5" width="27" height="31" as="geometry" />
        </mxCell>
        <mxCell id="O4Gj-lh6nIIsBaRWL_S3-0" value="" style="endArrow=none;html=1;rounded=0;edgeStyle=orthogonalEdgeStyle;exitX=1;exitY=0.5;exitDx=0;exitDy=0;" edge="1" parent="WIyWlLk6GJQsqaUBKTNV-1" source="J62IgyqliJUK6PcRR8d5-28">
          <mxGeometry width="50" height="50" relative="1" as="geometry">
            <mxPoint x="216" y="-443" as="sourcePoint" />
            <mxPoint x="-47" y="-146" as="targetPoint" />
            <Array as="points">
              <mxPoint x="-47" y="-700" />
              <mxPoint x="-47" y="-301" />
            </Array>
          </mxGeometry>
        </mxCell>
        <mxCell id="O4Gj-lh6nIIsBaRWL_S3-3" value="1" style="text;html=1;align=center;verticalAlign=middle;resizable=0;points=[];autosize=1;strokeColor=none;fillColor=none;fontSize=16;" vertex="1" parent="WIyWlLk6GJQsqaUBKTNV-1">
          <mxGeometry x="-46" y="-174.5" width="27" height="31" as="geometry" />
        </mxCell>
        <mxCell id="O4Gj-lh6nIIsBaRWL_S3-4" value="1" style="text;html=1;align=center;verticalAlign=middle;resizable=0;points=[];autosize=1;strokeColor=none;fillColor=none;fontSize=16;" vertex="1" parent="WIyWlLk6GJQsqaUBKTNV-1">
          <mxGeometry x="-97.5" y="-732" width="27" height="31" as="geometry" />
        </mxCell>
      </root>
    </mxGraphModel>
  </diagram>
</mxfile>
